<?xml version="1.0" encoding="UTF-8" standalone="no"?>
<!-- Created with Inkscape (http://www.inkscape.org/) -->
<svg
   xmlns:dc="http://purl.org/dc/elements/1.1/"
   xmlns:cc="http://creativecommons.org/ns#"
   xmlns:rdf="http://www.w3.org/1999/02/22-rdf-syntax-ns#"
   xmlns:svg="http://www.w3.org/2000/svg"
   xmlns="http://www.w3.org/2000/svg"
   xmlns:sodipodi="http://sodipodi.sourceforge.net/DTD/sodipodi-0.dtd"
   xmlns:inkscape="http://www.inkscape.org/namespaces/inkscape"
   width="744.09448819"
   height="1052.3622047"
   id="svg2"
   sodipodi:version="0.32"
   inkscape:version="0.46"
   sodipodi:docname="drawing-2.svg"
   inkscape:output_extension="org.inkscape.output.svg.inkscape"
   inkscape:export-filename="/home/vishesh/Prog/Survival/data/gfx/cursor.png"
   inkscape:export-xdpi="18.679993"
   inkscape:export-ydpi="18.679993">
  <defs
     id="defs4">
    <inkscape:perspective
       sodipodi:type="inkscape:persp3d"
       inkscape:vp_x="0 : 526.18109 : 1"
       inkscape:vp_y="0 : 1000 : 0"
       inkscape:vp_z="744.09448 : 526.18109 : 1"
       inkscape:persp3d-origin="372.04724 : 350.78739 : 1"
       id="perspective10" />
  </defs>
  <sodipodi:namedview
     id="base"
     pagecolor="#ffffff"
     bordercolor="#666666"
     borderopacity="1.0"
     gridtolerance="10000"
     guidetolerance="10"
     objecttolerance="10"
     inkscape:pageopacity="0.0"
     inkscape:pageshadow="2"
     inkscape:zoom="1"
     inkscape:cx="181.13903"
     inkscape:cy="187.57646"
     inkscape:document-units="px"
     inkscape:current-layer="layer1"
     showgrid="false"
     inkscape:window-width="1280"
     inkscape:window-height="925"
     inkscape:window-x="-5"
     inkscape:window-y="36" />
  <metadata
     id="metadata7">
    <rdf:RDF>
      <cc:Work
         rdf:about="">
        <dc:format>image/svg+xml</dc:format>
        <dc:type
           rdf:resource="http://purl.org/dc/dcmitype/StillImage" />
      </cc:Work>
    </rdf:RDF>
  </metadata>
  <g
     inkscape:label="Layer 1"
     inkscape:groupmode="layer"
     id="layer1">
    <g
       id="g3183"
       transform="matrix(0.8750647,0,0,1,31.207207,0)"
       inkscape:export-filename="/home/vishesh/Prog/Survival/data/gfx/cursor.png"
       inkscape:export-xdpi="89.366188"
       inkscape:export-ydpi="89.366188">
      <path
         inkscape:export-ydpi="90.563263"
         inkscape:export-xdpi="90.563263"
         inkscape:export-filename="/home/vishesh/Prog/Survival/data/gfx/cursor.png"
         d="M 256.52709,437.58337 C 262.85886,444.591 265.32599,451.81217 267.94856,458.96495 C 269.50912,464.50457 271.23247,470.13891 267.34368,475.64647 C 265.48253,478.28237 263.79635,479.30538 260.57605,481.79423 C 257.68481,483.83022 254.24491,485.80373 250.51873,487.74454 L 250.26702,487.77461 C 252.37278,485.86361 255.30796,484.03711 257.68468,482.14675 C 260.56783,479.53142 261.5346,478.91749 263.32152,476.15862 C 266.91169,470.61564 266.33003,464.98218 264.72745,459.39829 C 262.26611,452.24373 260.28743,445.00115 253.53167,438.01335 L 256.52709,437.58337 z"
         id="path2431"
         style="fill:#000000;fill-opacity:1;fill-rule:nonzero;stroke:#000000;stroke-width:0.9601742;stroke-linecap:round;stroke-linejoin:round;stroke-miterlimit:4;stroke-dasharray:none;stroke-opacity:1" />
      <path
         inkscape:export-ydpi="90.563263"
         inkscape:export-xdpi="90.563263"
         inkscape:export-filename="/home/vishesh/Prog/Survival/data/gfx/cursor.png"
         d="M 259.7051,435.34925 C 293.19128,436.60019 327.14937,436.67937 360.91232,436.88859 C 423.41552,437.0965 485.92149,437.12738 548.4142,437.51679 C 576.44781,437.68373 604.45692,437.99027 632.44289,438.43599 C 634.45976,438.55488 643.51892,438.44226 635.66719,439.08722 L 635.89424,439.0461 C 635.73154,439.1606 635.71593,439.29752 635.40613,439.38959 C 634.05679,439.79061 629.13797,439.16023 627.76284,439.29731 C 600.76708,438.45298 573.54278,438.17623 546.39266,437.89383 C 484.03891,437.4147 421.66556,437.35054 359.29073,437.19131 C 325.26481,437.00483 291.02154,436.97474 257.24284,435.79399 L 259.7051,435.34925 z"
         id="path2433"
         style="fill:#000000;fill-opacity:1;fill-rule:nonzero;stroke:#000000;stroke-width:2.3599999;stroke-linecap:round;stroke-linejoin:round;stroke-miterlimit:4;stroke-dasharray:none;stroke-opacity:1" />
      <path
         inkscape:export-ydpi="90.563263"
         inkscape:export-xdpi="90.563263"
         inkscape:export-filename="/home/vishesh/Prog/Survival/data/gfx/cursor.png"
         d="M 263.38904,488.67101 C 296.37747,489.15875 329.39281,489.057 362.39619,488.77021 C 423.91614,487.97903 485.14417,486.16705 546.29727,484.32464 C 575.42383,483.48211 604.4514,482.42373 633.57021,481.566 C 635.7847,481.60969 644.91424,481.04298 646.57629,481.53921 L 646.35532,481.58248 C 640.85662,482.19749 634.9257,482.28099 629.01512,482.43987 C 600.33598,483.19254 571.71596,484.08412 543.08208,484.94234 C 481.9009,486.72784 420.67712,488.55056 359.16469,489.38059 C 326.25512,489.65958 293.30374,489.80779 260.42478,489.2195 L 263.38904,488.67101 z"
         id="path2435"
         style="fill:#000000;fill-opacity:1;fill-rule:nonzero;stroke:#000000;stroke-width:2.3599999;stroke-linecap:round;stroke-linejoin:round;stroke-miterlimit:4;stroke-dasharray:none;stroke-opacity:1" />
      <path
         inkscape:export-ydpi="90.563263"
         inkscape:export-xdpi="90.563263"
         inkscape:export-filename="/home/vishesh/Prog/Survival/data/gfx/cursor.png"
         sodipodi:nodetypes="cccscccccc"
         d="M 647.0734,434.7594 C 637.87086,441.77358 636.55211,449.3108 634.17129,456.63528 C 630.72916,469.29094 625.76047,481.1968 622.4979,493.85562 C 626.47042,493.36452 629.90688,472.57122 622.917,492.65004 C 617.7048,507.62235 625.6726,488.55028 626.1733,490.81978 L 627.16127,492.53034 C 623.11008,488.77908 618.2646,499.06008 619.2623,495.21743 C 622.99647,482.5329 626.80864,469.85009 630.1171,457.15753 C 632.54161,449.78994 633.96159,442.19924 643.59971,435.17124 L 647.0734,434.7594 z"
         id="path2437"
         style="fill:#000000;fill-opacity:1;fill-rule:nonzero;stroke:#000000;stroke-width:0.9601742;stroke-linecap:round;stroke-linejoin:round;stroke-miterlimit:4;stroke-dasharray:none;stroke-opacity:1" />
      <path
         inkscape:export-ydpi="90.563263"
         inkscape:export-xdpi="90.563263"
         inkscape:export-filename="/home/vishesh/Prog/Survival/data/gfx/cursor.png"
         d="M 288.24093,434.4092 C 283.77078,433.07495 280.36097,431.55388 277.39236,429.97362 C 277.30903,429.93574 276.30001,429.37251 275.60661,429.34774 C 275.33067,429.33789 274.73379,429.45925 274.98302,429.49136 C 275.63382,429.57521 276.93597,429.36803 277.15433,429.54715 C 277.57565,429.89275 276.57691,430.25655 276.35179,430.61418 C 275.98894,431.19062 275.71124,431.77042 275.39097,432.34855 C 272.34517,439.57264 271.94034,446.84708 270.75783,454.10152 C 269.17012,462.62855 264.97274,471.10178 261.05929,479.57276 C 259.00879,484.13088 259.95641,481.89996 258.20229,486.2651 L 257.95457,486.29731 C 257.73994,482.16152 257.63209,484.28749 258.35487,479.9197 C 261.06233,471.42963 266.19715,463.00121 267.80302,454.48576 C 269.231,447.22689 269.68922,439.94695 272.52916,432.71257 C 272.6843,432.39823 274.4608,426.80818 279.69898,429.63559 C 282.63559,431.20722 285.71247,432.78318 290.27701,434.09051 L 288.24093,434.4092 z"
         id="path2439"
         style="fill:#000000;fill-opacity:1;fill-rule:nonzero;stroke:#000000;stroke-width:0.9601742;stroke-linecap:round;stroke-linejoin:round;stroke-miterlimit:4;stroke-dasharray:none;stroke-opacity:1" />
      <path
         inkscape:export-ydpi="90.563263"
         inkscape:export-xdpi="90.563263"
         inkscape:export-filename="/home/vishesh/Prog/Survival/data/gfx/cursor.png"
         d="M 371.35586,483.85134 C 385.53616,486.70921 403.70181,487.21761 420.91258,487.8753 C 456.17569,489.02596 491.74305,489.27653 527.24438,489.38459 C 552.71844,489.4026 578.19942,489.33915 603.61797,489.82613 C 613.57445,490.01394 623.46353,490.37318 633.40049,490.61059 C 638.84102,490.65712 643.80272,490.8129 648.37736,491.60241 L 648.14691,491.64226 C 642.43751,491.31762 636.62587,491.18952 630.79585,491.08966 C 621.02131,490.85301 611.33763,490.40348 601.54342,490.20905 C 576.28594,489.69766 550.96695,489.69613 525.64384,489.68392 C 490.13038,489.53451 454.55712,489.29436 419.26563,488.17485 C 401.91706,487.52226 383.59575,487.07175 369.29417,484.18426 L 371.35586,483.85134 z"
         id="path2441"
         style="fill:#000000;fill-opacity:1;fill-rule:nonzero;stroke:#000000;stroke-width:2.75999999;stroke-linecap:round;stroke-linejoin:round;stroke-miterlimit:4;stroke-dasharray:none;stroke-opacity:1" />
      <path
         inkscape:export-ydpi="90.563263"
         inkscape:export-xdpi="90.563263"
         inkscape:export-filename="/home/vishesh/Prog/Survival/data/gfx/cursor.png"
         d="M 493.05505,438.02411 C 514.459,438.05534 535.86163,438.18108 557.25327,438.37073 C 567.68592,438.54628 578.33277,438.59475 588.59341,439.18432 C 593.94246,439.49168 596.18987,439.80182 601.03722,440.33744 L 600.80699,440.37737 C 586.43498,439.09455 571.22943,438.74696 556.09955,438.58555 C 534.53592,438.39013 512.94902,438.27751 491.37223,438.34289 L 493.05505,438.02411 z"
         id="path2445"
         style="fill:#000000;fill-opacity:1;fill-rule:nonzero;stroke:#000000;stroke-width:0.9601742;stroke-linecap:round;stroke-linejoin:round;stroke-miterlimit:4;stroke-dasharray:none;stroke-opacity:1" />
    </g>
    <g
       id="g3232"
       inkscape:export-filename="/home/vishesh/Prog/Survival/data/gfx/menu_back.png"
       inkscape:export-xdpi="90.027771"
       inkscape:export-ydpi="90.027771"
       transform="matrix(1.0037817,0,0,1.0742138,-0.7188957,-27.886395)">
      <path
         d="M 204.10503,57.837833 C 201.33398,62.018265 200.54193,66.947465 199.83799,71.61082 C 198.84031,78.220143 198.82311,80.313814 198.29224,87.268942 C 196.80423,112.07362 198.77306,136.89114 201.10998,161.6131 C 203.90473,187.50463 206.96744,213.37168 208.8856,239.32036 C 210.39708,262.5685 210.42255,285.85587 210.24852,309.12938 C 210.2234,323.64953 209.9128,338.17206 210.15519,352.69173 C 209.68504,356.11182 211.18197,360.16738 210.1376,363.55495 C 207.94104,363.67182 205.75899,365.8136 208.76592,363.08645 L 208.9073,363.03219 C 210.5562,364.42994 208.26882,365.25425 206.26504,365.18535 C 205.96282,364.4476 206.05789,363.53503 206.05981,362.77722 C 206.06704,359.94104 206.28305,357.10954 206.38786,354.27553 C 206.89719,339.6298 207.01751,324.97575 207.39724,310.32757 C 207.75036,286.99193 207.94615,263.64319 206.53198,240.32526 C 204.97674,214.25985 202.3531,188.26481 199.57812,162.27043 C 197.38188,137.52001 195.50966,112.6941 196.84722,87.868306 C 197.56944,78.050635 197.52418,67.342853 202.79044,58.300485 L 204.10503,57.837833 z"
         id="path3196"
         style="fill:#000000;fill-opacity:1;fill-rule:nonzero;stroke:#000000;stroke-width:2.3599999;stroke-linecap:round;stroke-linejoin:round;stroke-miterlimit:4;stroke-dasharray:none;stroke-opacity:1" />
      <path
         d="M 193.02657,60.096084 C 204.1876,60.910321 215.43093,59.553702 226.53078,58.648727 C 250.02364,56.918567 273.55376,55.53645 297.08233,54.183738 C 324.56054,52.476076 352.09277,51.557662 379.64074,51.173561 C 400.70012,50.87194 421.72722,51.89087 442.72595,53.064476 C 458.83915,54.077465 474.94696,55.149704 491.06711,56.08541 C 502.96815,56.801649 514.89222,57.139705 526.81484,57.486594 C 530.31766,57.578154 533.81574,57.782693 537.31916,57.859169 C 538.49642,58.377728 535.61707,59.514192 535.24536,59.729336 L 535.10121,59.778356 C 535.31758,59.013531 534.65064,59.935721 534.18302,59.710087 C 530.89854,59.303528 527.56424,59.22001 524.25792,59.008298 C 512.44182,58.500801 500.61332,58.168951 488.81373,57.418301 C 472.81181,56.429148 456.8304,55.232846 440.83415,54.183948 C 420.01256,52.918008 399.15798,51.84531 378.26756,52.000826 C 350.79963,52.277543 323.34738,53.178945 295.95058,54.873616 C 272.38984,56.273414 248.81026,57.51399 225.29711,59.405314 C 214.02377,60.348394 202.62421,61.804184 191.27875,61.107105 L 193.02657,60.096084 z"
         id="path3198"
         style="fill:#000000;fill-opacity:1;fill-rule:nonzero;stroke:#000000;stroke-width:2.3599999;stroke-linecap:round;stroke-linejoin:round;stroke-miterlimit:4;stroke-dasharray:none;stroke-opacity:1" />
      <path
         d="M 536.1165,55.336979 C 531.88958,79.639547 527.49301,103.91695 523.59356,128.258 C 516.9288,169.73191 514.46632,211.52415 513.37346,253.31585 C 512.58915,277.30465 513.69521,301.2711 514.58904,325.24062 C 514.17968,326.02218 515.62328,332.13131 514.28926,333.00781 C 513.88963,333.27039 513.39021,333.40777 512.94069,333.60777 L 512.79553,333.65472 C 512.60836,333.70983 512.42578,333.86303 512.23403,333.82004 C 512.12311,333.79518 512.29097,333.62943 512.26765,333.53641 C 512.19063,333.22915 511.99655,332.94551 511.93712,332.6356 C 511.59847,330.86964 511.57325,328.13182 511.50261,326.54883 C 510.90987,302.29548 512.0989,278.02256 512.28815,253.7702 C 513.69188,211.88575 516.50643,170.01759 523.13149,128.44643 C 526.88672,104.21603 530.99752,80.027784 534.93868,55.818106 L 536.1165,55.336979 z"
         id="path3206"
         style="fill:#000000;fill-opacity:1;fill-rule:nonzero;stroke:#000000;stroke-width:2.3599999;stroke-linecap:round;stroke-linejoin:round;stroke-miterlimit:4;stroke-dasharray:none;stroke-opacity:1" />
      <path
         d="M 209.37655,358.25847 C 213.86687,364.97096 224.15278,365.79401 232.34348,367.0245 C 266.97174,370.41029 301.97458,368.47965 336.69869,367.2724 C 375.93629,365.42496 415.20936,366.23726 454.46368,366.96101 C 471.91239,367.80678 489.33567,365.95226 506.7645,366.10112 C 511.04175,366.44071 515.40244,367.30263 519.21184,368.99157 C 520.29884,369.70564 519.90133,369.28735 520.47476,370.19848 L 520.34347,370.26793 C 518.60691,369.94112 519.58829,370.0569 517.38354,370.02937 C 512.78962,369.63987 508.51003,368.15955 503.90803,367.80899 C 486.72688,367.33951 469.51442,369.24782 452.31952,368.24161 C 413.52968,367.24915 374.71172,365.83715 335.91655,367.7464 C 300.91058,369.0059 265.655,371.02036 230.70979,367.97016 C 222.50773,366.81222 211.65309,366.12989 207.39441,359.17423 L 209.37655,358.25847 z"
         id="path3208"
         style="fill:#000000;fill-opacity:1;fill-rule:nonzero;stroke:#000000;stroke-width:2.3599999;stroke-linecap:round;stroke-linejoin:round;stroke-miterlimit:4;stroke-dasharray:none;stroke-opacity:1" />
      <path
         d="M 501.99101,317.02075 C 502.42915,321.09943 503.16545,325.14595 503.58196,329.22847 C 503.90632,335.83806 503.56104,342.45872 503.39967,349.06976 C 503.36459,354.36392 503.28013,359.65764 503.22964,364.9517 C 503.06197,367.42669 503.60614,369.93322 503.06527,372.38712 C 502.8554,373.12329 502.29922,373.50863 501.65395,374.02663 L 501.51318,374.08199 C 500.92445,373.96344 500.73006,373.93589 500.48079,373.47505 C 499.8474,371.06687 500.6358,368.55322 500.44643,366.12006 C 500.57161,360.76342 500.81027,355.40998 501.04461,350.05601 C 501.25702,343.42001 501.63651,336.78229 501.44139,330.14291 C 501.28314,325.93921 500.63089,321.75535 500.73257,317.5474 L 501.99101,317.02075 z"
         id="path3210"
         style="fill:#000000;fill-opacity:1;fill-rule:nonzero;stroke:#000000;stroke-width:3.3446188;stroke-linecap:round;stroke-linejoin:round;stroke-miterlimit:4;stroke-dasharray:none;stroke-opacity:1" />
      <path
         d="M 199.32945,67.766873 C 198.16304,73.041989 197.74651,78.401633 196.93755,83.717519 C 195.82884,92.138335 194.20963,100.5068 193.50081,108.95684 L 193.36144,109.01454 C 194.06264,100.65086 194.70361,92.292355 196.25292,83.997094 C 197.05118,78.657267 197.97548,73.331112 198.77535,67.99144 L 199.32945,67.766873 z"
         id="path3212"
         style="fill:#000000;fill-opacity:1;fill-rule:nonzero;stroke:#000000;stroke-width:2.3599999;stroke-linecap:round;stroke-linejoin:round;stroke-miterlimit:4;stroke-dasharray:none;stroke-opacity:1" />
      <path
         d="M 508.21978,302.17343 C 507.88398,305.61051 507.73837,309.06431 507.77846,312.5125 C 507.75846,315.66655 508.23504,318.78646 508.76287,321.90244 C 509.45081,325.29584 510.41666,328.64506 511.19777,332.02382 C 511.99592,335.29721 512.07462,338.632 511.97604,341.95635 C 511.81055,344.86197 511.47458,347.76143 511.03418,350.64705 C 510.75439,352.53428 510.62988,354.43105 510.49506,356.32785 C 510.30599,358.3704 509.51788,360.31958 508.90983,362.2926 C 508.4374,363.85401 508.21663,365.45911 508.08489,367.06203 C 508.12141,368.62864 507.52345,369.83559 506.53121,371.13408 L 506.39261,371.19303 C 504.67468,370.49148 505.03439,369.72404 505.12737,368.28196 C 505.32455,366.65806 505.48429,365.02973 505.99204,363.44461 C 506.63234,361.48393 507.45296,359.54148 507.652,357.50466 C 507.8435,355.56487 508.09278,353.62792 508.45058,351.70388 C 508.83347,348.81356 509.29959,345.92856 509.43229,343.01919 C 509.59572,339.69214 509.51301,336.36644 508.79958,333.07863 C 508.1069,329.65713 507.22302,326.26556 506.62618,322.83124 C 506.16844,319.65172 506.08209,316.45432 506.01672,313.25472 C 506.04876,309.77333 506.3072,306.30513 506.61801,302.83377 L 508.21978,302.17343 z"
         id="path3214"
         style="fill:#000000;fill-opacity:1;fill-rule:nonzero;stroke:#000000;stroke-width:1.36000001;stroke-linecap:round;stroke-linejoin:round;stroke-miterlimit:4;stroke-dasharray:none;stroke-opacity:1" />
    </g>
    <g
       id="g3211"
       inkscape:export-filename="/home/vishesh/Prog/Survival/data/gfx/highscore_game.png"
       inkscape:export-xdpi="89.999992"
       inkscape:export-ydpi="89.999992">
      <path
         d="M 71.877394,610.08321 C 69.510295,615.35194 69.108435,621.14761 68.614899,626.68155 C 67.933087,634.32661 67.797975,639.27113 67.435169,647.10293 C 66.291964,676.38395 68.416477,705.62964 71.129743,734.81413 C 73.498504,760.55612 77.813799,786.13688 83.48966,811.53562 C 84.962682,817.50525 86.293416,823.49336 87.416814,829.51079 L 82.25901,831.68048 C 81.438691,825.57977 80.303739,819.51646 78.913584,813.48022 C 73.697043,787.94828 69.487052,762.28832 67.127169,736.47608 C 64.421002,707.3377 62.264881,678.15149 62.959042,648.91446 C 63.168096,641.51035 63.256907,635.93357 63.701676,628.64692 C 64.038685,623.12575 64.325146,617.46536 66.173914,612.10597 L 71.877394,610.08321 z"
         id="path3203"
         style="opacity:1;fill:#000000;fill-opacity:1;fill-rule:nonzero;stroke:#000000;stroke-width:1.53804314;stroke-linecap:round;stroke-linejoin:round;stroke-miterlimit:4;stroke-dasharray:none;stroke-opacity:1" />
      <path
         d="M 67.971148,621.01678 C 78.528611,619.12767 89.19004,617.65232 99.867843,616.25155 C 138.84316,611.16129 178.17696,608.39888 217.54234,606.17386 C 277.24351,603.93184 337.01881,605.06053 396.73984,606.01099 C 427.08999,606.61337 457.43293,607.43313 487.78707,607.90317 C 495.11918,608.27269 502.40671,607.89319 509.70805,607.44239 L 504.80443,610.33917 C 497.63438,610.77289 490.48352,610.95543 483.29567,610.4992 C 453.37887,609.63453 423.46908,608.61821 393.54761,607.85787 C 333.86399,606.6044 274.09425,605.2893 214.43808,608.00621 C 205.68186,608.52766 196.91879,608.97997 188.16943,609.57057 C 157.15313,611.66425 126.25519,614.76499 95.550986,618.85094 C 84.647538,620.3768 73.77108,621.99718 62.990658,623.99958 L 67.971148,621.01678 z"
         id="path3205"
         style="opacity:1;fill:#000000;fill-opacity:1;fill-rule:nonzero;stroke:#000000;stroke-width:1.53804314;stroke-linecap:round;stroke-linejoin:round;stroke-miterlimit:4;stroke-dasharray:none;stroke-opacity:1" />
      <path
         d="M 76.780082,825.9737 C 87.207625,829.28877 99.063472,828.7827 110.06471,828.70742 C 114.23043,828.54592 118.40028,828.44239 122.56185,828.22293 C 130.59203,827.79946 149.15866,826.45068 156.47884,825.892 C 181.03375,824.01798 205.55885,821.88307 230.09472,819.85806 C 267.76875,816.79692 305.59848,814.89782 343.47647,814.93387 C 365.6155,814.95495 372.518,815.36273 394.31543,816.10147 C 429.92305,817.55238 465.40575,820.38747 500.96938,822.3446 C 504.40949,822.46572 507.8496,822.58685 511.28971,822.70798 L 506.93852,825.21107 C 503.54656,825.05814 500.15461,824.9052 496.76265,824.75228 C 461.52638,822.49487 426.36178,819.50005 391.05533,817.97927 C 369.17349,817.1767 362.68982,816.75832 340.44508,816.70065 C 302.57039,816.60247 264.73871,818.48491 227.0803,821.64947 C 202.3238,823.77477 177.58239,826.02616 152.81446,828.06501 C 145.28618,828.68471 126.6474,830.16774 118.4208,830.65719 C 114.19454,830.90864 109.95866,831.04289 105.7276,831.23574 C 94.425276,831.39141 82.354743,831.96384 71.578833,828.71212 L 76.780082,825.9737 z"
         id="path3207"
         style="opacity:1;fill:#000000;fill-opacity:1;fill-rule:nonzero;stroke:#000000;stroke-width:1.53804314;stroke-linecap:round;stroke-linejoin:round;stroke-miterlimit:4;stroke-dasharray:none;stroke-opacity:1" />
      <path
         d="M 508.42536,604.01305 C 507.97086,611.79029 507.15944,619.55694 506.48129,627.32484 C 504.46113,651.10749 503.61784,674.93215 503.28675,698.76351 C 502.94625,730.16354 505.6544,761.50268 508.34847,792.80691 C 510.44216,812.00021 510.90754,831.23275 510.42627,850.48151 L 505.50385,852.47501 C 505.84722,844.45235 506.17378,836.42905 506.04414,828.39974 C 505.92057,820.74603 505.53095,814.65101 505.02867,806.95543 C 504.75855,802.81687 504.44928,798.68001 504.1596,794.5423 C 501.76129,763.19323 499.20877,731.8242 499.26459,700.40036 C 499.37982,676.69262 499.98934,652.9901 501.5331,629.31148 C 502.05236,621.63988 502.72911,613.95895 502.86888,606.2785 L 508.42536,604.01305 z"
         id="path3209"
         style="opacity:1;fill:#000000;fill-opacity:1;fill-rule:nonzero;stroke:#000000;stroke-width:1.53804314;stroke-linecap:round;stroke-linejoin:round;stroke-miterlimit:4;stroke-dasharray:none;stroke-opacity:1" />
    </g>
    <path
       style="opacity:1;fill:#000000;fill-opacity:1;fill-rule:nonzero;stroke:#000000;stroke-width:1.36000001;stroke-linecap:round;stroke-linejoin:round;stroke-miterlimit:4;stroke-dasharray:none;stroke-opacity:1"
       id="path2420"
       d="M 200.96348,920.61794 C 201.07352,927.26105 201.44832,933.89787 201.81001,940.53135 C 202.11109,946.98746 202.52286,953.43766 202.84457,959.8928 C 203.03865,962.94319 202.99121,965.97962 202.65258,969.01447 C 202.37747,970.77352 202.07285,972.52659 201.88068,974.29738 C 201.72655,975.14545 201.75854,975.4072 200.16851,975.3358 C 199.91388,975.32437 201.4871,973.05556 201.54643,972.96905 L 201.637,972.92664 C 201.68278,973.14317 202.03073,974.35515 201.80952,974.55062 C 199.79119,976.33411 199.89813,976.13432 200.18373,975.11375 C 200.80657,973.29313 201.30111,971.43374 201.60543,969.53155 C 202.03434,966.48639 202.03725,963.41582 201.96481,960.34498 C 201.82787,953.83267 201.57022,947.32329 201.25534,940.81733 C 200.97543,934.14895 200.57051,927.47928 200.599,920.80301 L 200.96348,920.61794 z"
       inkscape:export-filename="/home/vishesh/Prog/Survival/data/gfx/leftArrow.png"
       inkscape:export-xdpi="50.574963"
       inkscape:export-ydpi="50.574963" />
    <path
       style="opacity:1;fill:#000000;fill-opacity:1;fill-rule:nonzero;stroke:#000000;stroke-width:1.36000001;stroke-linecap:round;stroke-linejoin:round;stroke-miterlimit:4;stroke-dasharray:none;stroke-opacity:1"
       id="path2426"
       d="M 158.74468,944.27524 C 165.40568,941.37541 171.84299,938.009 178.23398,934.56426 C 182.87656,932.04833 187.42861,929.37304 191.96482,926.67204 C 194.01203,925.46396 196.10254,924.33191 198.13999,923.10746 C 198.29539,923.01124 198.45078,922.91501 198.60618,922.81879 L 198.69911,922.78187 C 198.65264,922.83592 198.60617,922.88997 198.5597,922.94402 C 196.74185,924.22917 194.73075,925.20579 192.82073,926.34234 C 187.82627,929.29231 182.82375,932.23006 177.71578,934.98135 C 171.28938,938.4365 164.81257,941.80123 158.13811,944.75765 L 158.74468,944.27524 z"
       inkscape:export-filename="/home/vishesh/Prog/Survival/data/gfx/leftArrow.png"
       inkscape:export-xdpi="50.574963"
       inkscape:export-ydpi="50.574963" />
    <path
       style="opacity:1;fill:#000000;fill-opacity:1;fill-rule:nonzero;stroke:#000000;stroke-width:1.36000001;stroke-linecap:round;stroke-linejoin:round;stroke-miterlimit:4;stroke-dasharray:none;stroke-opacity:1"
       id="path2428"
       d="M 161.06106,942.79424 C 168.25807,944.74369 174.28191,949.32806 179.99053,953.93179 C 185.76041,958.89433 190.52907,964.83934 195.51057,970.55399 C 197.05606,972.30682 198.6641,974.01682 200.72821,975.14865 C 200.76869,975.18352 200.90252,975.26099 200.84966,975.25325 C 199.65449,975.07831 199.98136,975.20763 199.87836,974.04526 L 199.96649,973.998 C 200.25009,974.80014 200.71967,976.39116 199.06294,976.18483 C 197.76538,974.31588 195.9225,972.93852 194.52449,971.14689 C 189.75365,965.31162 185.2235,959.22351 179.5447,954.21105 C 173.90586,949.50336 167.88787,945.03193 160.69581,943.04578 L 161.06106,942.79424 z"
       inkscape:export-filename="/home/vishesh/Prog/Survival/data/gfx/leftArrow.png"
       inkscape:export-xdpi="50.574963"
       inkscape:export-ydpi="50.574963" />
    <path
       style="opacity:1;fill:#000000;fill-opacity:1;fill-rule:nonzero;stroke:#000000;stroke-width:1.36000001;stroke-linecap:round;stroke-linejoin:round;stroke-miterlimit:4;stroke-dasharray:none;stroke-opacity:1"
       id="path2430"
       d="M 199.78531,943.98724 C 205.16836,945.74059 210.92982,945.6497 216.52867,945.71814 C 222.84204,945.75872 229.15743,945.49261 235.43304,944.7985 C 237.08616,944.60824 238.70161,944.20136 240.36587,944.19771 L 240.28675,944.25887 C 238.46866,945.05311 236.56794,945.27684 234.59356,945.42219 C 228.35079,946.06664 222.08043,946.32125 215.80396,946.24316 C 210.1621,946.15819 204.35406,946.25499 198.91295,944.56653 L 199.78531,943.98724 z"
       inkscape:export-filename="/home/vishesh/Prog/Survival/data/gfx/leftArrow.png"
       inkscape:export-xdpi="50.574963"
       inkscape:export-ydpi="50.574963" />
    <path
       style="opacity:1;fill:#000000;fill-opacity:1;fill-rule:nonzero;stroke:#000000;stroke-width:1.36000001;stroke-linecap:round;stroke-linejoin:round;stroke-miterlimit:4;stroke-dasharray:none;stroke-opacity:1"
       id="path2432"
       d="M 196.38871,951.42872 C 201.28734,953.72528 206.77929,954.3922 212.09581,955.03861 C 219.15388,955.85694 226.22624,955.31496 233.2267,954.30348 C 236.74447,954.1297 240.13863,952.55206 243.65415,952.48321 C 244.46451,952.49738 244.65121,952.7862 244.37849,953.49814 L 244.29064,953.54592 C 243.8033,953.3499 243.2791,953.24218 242.76856,953.12831 C 239.29093,953.14444 235.93968,954.69999 232.46583,954.87295 C 225.48251,955.85942 218.43791,956.39078 211.40283,955.52955 C 206.08055,954.89901 200.60118,954.1661 195.69919,951.87773 L 196.38871,951.42872 z"
       inkscape:export-filename="/home/vishesh/Prog/Survival/data/gfx/leftArrow.png"
       inkscape:export-xdpi="50.574963"
       inkscape:export-ydpi="50.574963" />
    <path
       style="opacity:1;fill:#000000;fill-opacity:1;fill-rule:nonzero;stroke:#000000;stroke-width:1.36000001;stroke-linecap:round;stroke-linejoin:round;stroke-miterlimit:4;stroke-dasharray:none;stroke-opacity:1"
       id="path2434"
       d="M 239.21322,943.40731 C 238.80043,945.86578 238.61542,948.34541 238.56189,950.83492 C 238.55038,952.73104 238.47274,954.62654 238.46842,956.52256 C 238.1558,956.78904 238.93137,958.61771 238.64422,958.74133 C 238.30111,958.88903 237.91657,958.91072 237.55275,958.99541 C 237.66444,958.73438 237.77614,958.47334 237.88783,958.2123 L 237.97768,958.1684 C 238.01378,958.35528 238.04987,958.54217 238.08597,958.72905 C 237.70574,959.01937 237.3598,959.36118 236.94529,959.60002 C 236.76862,959.70183 236.96751,959.19068 237.01433,958.99222 C 237.1594,958.37727 237.25661,957.75745 237.27698,957.12408 C 237.41195,955.21116 237.45857,953.29427 237.48818,951.3771 C 237.6169,948.84655 237.91736,946.32767 238.34752,943.83051 L 239.21322,943.40731 z"
       inkscape:export-filename="/home/vishesh/Prog/Survival/data/gfx/leftArrow.png"
       inkscape:export-xdpi="50.574963"
       inkscape:export-ydpi="50.574963" />
  </g>
</svg>
